<?xml version="1.0" encoding="UTF-8" standalone="no"?>
<!-- Generator: Adobe Illustrator 16.0.0, SVG Export Plug-In . SVG Version: 6.00 Build 0)  -->
<svg id="Capa_1" xmlns:rdf="http://www.w3.org/1999/02/22-rdf-syntax-ns#" style="enable-background:new 0 0 36.447 36.447" xmlns="http://www.w3.org/2000/svg" xml:space="preserve" height="36.447px" viewBox="0 0 36.447 36.447" width="36.447px" version="1.1" y="0px" x="0px" xmlns:cc="http://creativecommons.org/ns#" xmlns:dc="http://purl.org/dc/elements/1.1/"><metadata id="metadata67"><rdf:RDF><cc:Work rdf:about=""><dc:format>image/svg+xml</dc:format><dc:type rdf:resource="http://purl.org/dc/dcmitype/StillImage"/></cc:Work></rdf:RDF></metadata><defs id="defs65"><filter id="filter3044" height="1" width="1" y="0" x="0" color-interpolation-filters="sRGB"><feColorMatrix id="feColorMatrix3046" values="1" type="saturate" result="fbSourceGraphic"/><feColorMatrix id="feColorMatrix3048" values="-1 0 0 0 1 0 -1 0 0 1 0 0 -1 0 1 0 0 0 1 0 " in="fbSourceGraphic"/></filter></defs>
<g id="g3" filter="url(#filter3044)">
	<g id="g5">
		<path id="path7" d="m30.224 3.948h-1.098v-1.198c0-1.517-1.197-2.75-2.67-2.75-1.474 0-2.67 1.233-2.67 2.75v1.197h-2.74v-1.197c0-1.517-1.197-2.75-2.67-2.75s-2.67 1.233-2.67 2.75v1.197h-2.74v-1.197c0-1.517-1.197-2.75-2.67-2.75s-2.67 1.233-2.67 2.75v1.197h-1.402c-2.343 0-4.25 1.907-4.25 4.25v24c0 2.343 1.907 4.25 4.25 4.25h24c2.344 0 4.25-1.907 4.25-4.25v-24c0-2.342-1.907-4.249-4.25-4.249zm-4.938-1.198c0-0.689 0.525-1.25 1.17-1.25 0.646 0 1.17 0.561 1.17 1.25v4.896c0 0.689-0.524 1.25-1.17 1.25-0.645 0-1.17-0.561-1.17-1.25v-4.896zm-8.08 0c0-0.689 0.525-1.25 1.17-1.25s1.17 0.561 1.17 1.25v4.896c0 0.689-0.525 1.25-1.17 1.25s-1.17-0.561-1.17-1.25v-4.896zm-8.081 0c0-0.689 0.525-1.25 1.17-1.25s1.17 0.561 1.17 1.25v4.896c0 0.689-0.525 1.25-1.17 1.25s-1.17-0.561-1.17-1.25v-4.896zm22.849 29.448c0 0.965-0.785 1.75-1.75 1.75h-24c-0.965 0-1.75-0.785-1.75-1.75v-22h27.5v22z"/>
		<rect id="rect9" y="14.626" x="6.724" height="4.089" width="4.595"/>
		<rect id="rect11" y="14.626" x="12.857" height="4.089" width="4.596"/>
		<rect id="rect13" y="14.626" x="18.995" height="4.089" width="4.595"/>
		<rect id="rect15" y="14.626" x="25.128" height="4.089" width="4.596"/>
		<rect id="rect17" y="20.084" x="6.724" height="4.086" width="4.595"/>
		<rect id="rect19" y="20.084" x="12.857" height="4.086" width="4.596"/>
		<rect id="rect21" y="20.084" x="18.995" height="4.086" width="4.595"/>
		<rect id="rect23" y="20.084" x="25.128" height="4.086" width="4.596"/>
		<rect id="rect25" y="25.54" x="6.724" height="4.086" width="4.595"/>
		<rect id="rect27" y="25.54" x="12.857" height="4.086" width="4.596"/>
		<rect id="rect29" y="25.54" x="18.995" height="4.086" width="4.595"/>
		<rect id="rect31" y="25.54" x="25.128" height="4.086" width="4.596"/>
	</g>
</g>
</svg>
