<?xml version="1.0" encoding="utf-8"?>
<!-- Generator: Adobe Illustrator 18.1.0, SVG Export Plug-In . SVG Version: 6.00 Build 0)  -->
<svg version="1.1" id="Layer_1" xmlns="http://www.w3.org/2000/svg" xmlns:xlink="http://www.w3.org/1999/xlink" x="0px" y="0px"
	 viewBox="0 328.8 120.7 142.6" enable-background="new 0 328.8 120.7 142.6" xml:space="preserve">
<path fill="#FFFFFF" d="M46.2,377.4l26.1-37.9c4.9-7.1,11.3-10.7,19.1-10.7c6.4,0,12,2.4,16.5,6.9c4.7,4.5,7.1,9.8,7.1,16.3
	c0,4.7-1.3,8.8-3.6,12.4l-23.5,34.3l28.7,36.4c2.8,3.6,4.3,7.9,4.3,12.8c0,6.4-2.4,12-6.9,16.7c-4.5,4.7-10.1,6.9-16.5,6.9
	c-7.1,0-12.4-2.4-16.1-6.9l-35.1-44.3v24.2c0,6.9-1.3,12.2-3.6,16.1c-4.3,7.1-10.7,10.5-19.1,10.5c-7.7,0-13.5-2.6-17.8-7.7
	C1.9,458.8,0,452.6,0,444.6v-89.9c0-7.5,1.9-13.5,6-18.2c4.3-5.1,9.8-7.7,17.3-7.7c7.1,0,12.8,2.6,17.6,7.7c2.6,2.8,4.3,5.6,4.9,8.6
	c0.4,1.7,0.6,5.1,0.6,10.1v22.3H46.2z"/>
</svg>
