<?xml version="1.0" encoding="UTF-8" standalone="no"?>
<svg width="1001px" height="402px" viewBox="0 0 1001 402" version="1.1" xmlns="http://www.w3.org/2000/svg" xmlns:xlink="http://www.w3.org/1999/xlink" xmlns:sketch="http://www.bohemiancoding.com/sketch/ns">
    <!-- Generator: Sketch 3.2.2 (9983) - http://www.bohemiancoding.com/sketch -->
    <title>Slice 1</title>
    <desc>Created with Sketch.</desc>
    <defs></defs>
    <g id="Page-1" stroke="none" stroke-width="1" fill="none" fill-rule="evenodd" sketch:type="MSPage">
        <g id="ksr-logo-sprite" sketch:type="MSLayerGroup">
            <path d="M36.6,41.4 L57.1,11.4 C61,5.8 66.1,3.1 72.3,3.1 C77.4,3.1 81.7,4.8 85.4,8.4 C89.1,12 91,16.3 91,21.2 C91,24.8 89.9,28 88,31 L69.4,58 L92,87 C94.4,89.8 95.4,93.2 95.4,97.1 C95.4,102.2 93.7,106.5 90.1,110.2 C86.5,113.8 82.2,115.8 77,115.8 C71.4,115.8 67.2,114.1 64.2,110.5 L36.4,75.7 L36.4,95 C36.4,100.6 35.5,104.6 33.6,107.8 C30.2,113.4 25,116.1 18.4,116.1 C12.4,116.1 7.7,114.2 4.5,110.1 C1.5,105.8 1.77635684e-15,100.9 1.77635684e-15,94.7 L1.77635684e-15,23.7 C0,17.9 1.5,13 4.7,9.1 C7.9,5.2 12.6,3.1 18.4,3.1 C24,3.1 28.5,5.2 32.1,9.1 C34.2,11.2 35.5,13.6 36,15.7 C36.4,17.2 36.4,19.8 36.4,23.6 L36.4,41.4 L36.6,41.4 L36.6,41.4 Z M138.9,25.8 L138.9,94.5 C138.9,100.5 137.4,105.4 134.2,109.3 C131,113.6 126.3,115.7 120.5,115.7 C115.2,115.7 110.7,113.8 107,109.7 C104,106.5 102.3,101.4 102.3,94.5 L102.3,25.8 C102.3,18.1 103.8,12.5 107,9.1 C110.6,5 115.1,3.1 120.7,3.1 C126.3,3.1 130.8,5 134.2,8.9 C137.4,12.6 138.9,18.1 138.9,25.8 L138.9,25.8 Z M204.7,1 C218.2,1 230.6,5.5 241.9,14.5 C250.7,21.6 255.2,29 255.2,36.8 C255.2,43.2 252.4,48.4 247.1,52 C244.1,54.1 240.7,55 237,55 C234,55 231.2,54.4 228.4,52.9 C227.3,52.3 224.5,49.5 220.1,44.8 C216,40.3 210.7,38 204.5,38 C198.5,38 193.4,40.1 189.3,44.2 C185.2,48.5 183.1,53.6 183.1,59.6 C183.1,65.6 185.2,70.7 189.3,75 C193.4,79.3 198.5,81.2 204.5,81.2 C209.4,81.2 214.1,79.5 218.4,76.1 C221,73.5 223.7,71 226.3,68.4 C229.1,66 232.7,64.8 237,64.8 C241.9,64.8 246.2,66.5 250.1,69.9 C253.7,73.3 255.7,77.6 255.7,82.5 C255.7,89.3 251.6,96.2 243.7,103 C232.6,112.8 219.7,117.5 205,117.5 C196,117.5 187.5,115.6 179.3,111.7 C169.2,106.8 161.1,99.7 155.1,90.3 C149.1,80.9 146.1,70.6 146.1,59.3 C146.1,42.6 152.3,28.3 164.7,16.5 C175.7,6.3 188.9,1.2 204.7,1 L204.7,1 Z M298.5,41.4 L319,11.4 C322.9,5.8 328,3.1 334.2,3.1 C339.3,3.1 343.6,4.8 347.3,8.4 C350.9,12 352.9,16.3 352.9,21.2 C352.9,24.8 351.8,28 349.9,31 L331.3,58 L353.9,87 C356.3,89.8 357.3,93.2 357.3,97.1 C357.3,102.2 355.6,106.5 352,110.2 C348.4,113.8 344.1,115.8 338.9,115.8 C333.3,115.8 329.1,114.1 326.1,110.5 L298.3,75.8 L298.3,95.1 C298.3,100.7 297.4,104.7 295.5,107.9 C292.1,113.5 286.9,116.2 280.3,116.2 C274.3,116.2 269.6,114.3 266.4,110.2 C263.4,106.6 261.7,101.4 261.7,95.4 L261.7,23.7 C261.7,17.9 263.2,13 266.4,9.2 C270,5.3 274.5,3.2 280.3,3.2 C285.9,3.2 290.4,5.1 294.2,9.2 C296.3,11.3 297.6,13.7 298.1,15.8 C298.5,17.3 298.5,19.9 298.5,23.7 L298.5,41.4 L298.5,41.4 Z" id="Shape" fill="#0F2105" sketch:type="MSShapeGroup"></path>
            <path d="M380.2,72.9 C384.3,72.9 388.5,74.6 393.3,78.2 C399.1,82.7 402.9,84.8 405.1,84.8 C408.3,84.8 409.8,83.1 409.8,79.9 C409.8,78.2 408.9,76.7 407,75.4 C405.9,74.8 400.6,72.6 390.5,69.2 C374.2,63.4 366.1,52.9 366.1,37.3 C366.1,25.5 370.4,16.3 378.9,9.7 C386.6,3.9 395.8,0.9 406.9,0.9 C416.5,0.9 424.9,3.3 431.9,7.7 C438.9,12.1 442.6,18.2 442.6,25.5 C442.6,29.8 441.3,33.4 438.5,36.4 C435.7,39.4 432.3,40.7 428,40.7 C423.5,40.7 418.6,38.6 413,34.3 C409.6,31.7 407,30.2 405.3,30.2 C402.3,30.2 400.8,31.7 400.8,34.5 C400.8,37.3 404.4,39.8 411.9,42 C422.2,45.2 429.9,49.1 435.4,53.8 C442.9,60 446.5,68.6 446.5,79.7 C446.5,91.9 442.4,101.3 434.1,108.2 C426.4,114.6 416.3,117.6 403.9,117.6 C391.5,117.6 381.2,114.4 373.1,107.8 C366.7,102.5 363.3,96.5 363.3,89.4 C363.3,84.7 364.8,80.8 368,77.6 C371.6,74.6 375.5,72.9 380.2,72.9 L380.2,72.9 Z M478,38 L468.4,38 C463.1,38 458.6,36.5 455.1,33.7 C451.5,30.5 449.5,26.4 449.5,21.1 C449.5,17.9 450.4,14.9 452.1,12.1 C453.8,9.1 456.2,7.2 458.9,5.9 C461.7,4.6 468.3,4 478.8,4 L515.6,4 C524.6,4 530.6,4.6 533.1,5.7 C536.1,7 538.4,8.9 540.2,11.9 C542,14.9 543,17.9 543,21.1 C543,26.2 541.1,30.5 537,34.2 C534.2,36.8 529.5,38.3 522.9,38.3 L514.6,38.3 L514.6,93.5 C514.6,99.5 513.5,104.2 511.6,107.4 C508.2,113 503,115.7 496.6,115.7 C490,115.7 485,113.1 481.4,108.2 C479.3,105 478,100.3 478,93.9 L478,38 L478,38 Z M566.8,100.5 C565.1,104.6 563.4,107.8 561.5,109.7 C557.9,113.8 553.4,115.7 548,115.7 C541.6,115.7 536.4,113.1 533,108 C530.9,105 529.8,101.4 529.8,97.5 C529.8,94.3 530.7,91.1 532.2,87.9 L566.9,14.1 C570.3,6.8 575.9,3.4 583.8,3.4 C591.7,3.4 597.5,7 600.9,14.5 L636,88.7 C637.5,91.7 638.1,94.7 638.1,97.5 C638.1,101.8 636.6,105.6 633.8,109.1 C630.2,113.6 625.5,115.7 619.7,115.7 C615,115.7 611.1,114.2 607.9,111.4 C605.5,109.3 603.2,105.6 600.8,100.7 L566.8,100.7 L566.8,100.5 L566.8,100.5 Z M718.7,72 L727.3,85.9 C729.7,89.8 730.9,93.6 730.9,97.7 C730.9,102.8 729.2,107.1 725.6,110.5 C722,113.9 717.7,115.6 712.5,115.6 C705.9,115.6 700.9,112.8 697.5,107.3 L682.3,82.3 L682.3,97.3 C682.3,102.4 680.6,106.7 677.2,110.4 C673.8,114.1 669.5,115.7 664.4,115.7 C658.2,115.7 653.3,113.6 650.1,108.9 C647.1,105 645.8,99.7 645.8,93.3 L645.8,25 C645.8,10.9 653.3,4 668.5,4 L691.8,4 C699.5,4 706.6,6.1 713,10.6 C719.6,15.1 724.3,20.7 727.3,27.7 C729.7,33 730.7,38.4 730.7,43.7 C730.6,53.8 726.6,63.3 718.7,72 L718.7,72 Z M762.1,38 L752.5,38 C747.2,38 742.7,36.5 739.2,33.7 C735.6,30.5 733.6,26.4 733.6,21.1 C733.6,17.9 734.5,14.9 736.2,12.1 C737.9,9.1 740.3,7.2 743,5.9 C745.8,4.6 752.4,4 762.9,4 L799.7,4 C808.7,4 814.7,4.6 817.2,5.7 C820.2,7 822.5,8.9 824.3,11.9 C826,14.9 827.1,17.9 827.1,21.1 C827.1,26.2 825.2,30.5 821.1,34.2 C818.3,36.8 813.6,38.3 807,38.3 L798.7,38.3 L798.7,93.5 C798.7,99.5 797.6,104.2 795.7,107.4 C792.3,113 787.1,115.7 780.7,115.7 C774.1,115.7 769.1,113.1 765.5,108.2 C763.4,105 762.1,100.3 762.1,93.9 L762.1,38 L762.1,38 Z M870.3,80.6 L887,80.6 C893.8,80.6 899,82.1 902.4,84.9 C906.3,88.3 908.4,92.6 908.4,98 C908.4,103.4 906.5,107.8 902.4,111.1 C899.4,113.7 894.3,115 887.2,115 L858.7,115 C852.1,115 847.4,114.6 844.8,113.5 C839.9,111.6 836.7,108.2 835.2,103.7 C834.1,100.7 833.7,96 833.7,89.4 L833.7,28.8 C833.7,23.7 833.9,20.5 834.1,18.7 C834.7,15.3 836,12.3 838.4,9.7 C841,6.9 844.4,5.2 848.2,4.4 C850.2,4 854.1,4 859.9,4 L881.7,4 C887.7,4 891.1,4 892.2,4.2 C896.1,4.6 899.3,5.7 901.8,7.6 C906.3,11 908.4,15.3 908.4,20.7 C908.4,26.5 906.5,31 902.6,34.2 C899.2,37 894.5,38.3 888.5,38.3 L870.5,38.3 L870.5,45.8 L884.8,45.8 C889.1,45.8 892.5,46.9 895.3,49.2 C898.3,51.6 899.6,54.8 899.6,59 C899.6,67.8 894.3,72.3 883.6,72.3 L870.5,72.3 L870.5,80.6 L870.3,80.6 L870.3,80.6 Z M987.8,72 L996.4,85.9 C998.8,89.8 1000,93.6 1000,97.7 C1000,102.8 998.3,107.1 994.7,110.5 C991.1,113.9 986.8,115.6 981.6,115.6 C975,115.6 970,112.8 966.6,107.3 L951.4,82.3 L951.4,97.3 C951.4,102.4 949.7,106.7 946.3,110.4 C942.9,114 938.6,115.7 933.5,115.7 C927.3,115.7 922.4,113.6 919.2,108.9 C916.2,105 914.9,99.7 914.9,93.3 L914.9,25 C914.9,10.9 922.4,4 937.6,4 L960.9,4 C968.6,4 975.7,6.1 982.1,10.6 C988.7,15.1 993.4,20.7 996.4,27.7 C998.8,33 999.8,38.4 999.8,43.7 C999.8,53.8 995.7,63.3 987.8,72 L987.8,72 Z M36.6,187.4 L57.1,157.4 C61,151.8 66.1,149.1 72.3,149.1 C77.4,149.1 81.7,150.8 85.4,154.4 C89.1,158 91,162.3 91,167.2 C91,170.8 89.9,174 88,177 L69.4,204 L92,233 C94.4,235.8 95.4,239.2 95.4,243.1 C95.4,248.2 93.7,252.5 90.1,256.2 C86.5,259.8 82.2,261.8 77,261.8 C71.4,261.8 67.2,260.1 64.2,256.5 L36.4,221.8 L36.4,241.1 C36.4,246.7 35.5,250.7 33.6,253.9 C30.2,259.5 25,262.2 18.4,262.2 C12.4,262.2 7.7,260.3 4.5,256.2 C1.5,251.9 1.77635684e-15,247 1.77635684e-15,240.8 L1.77635684e-15,169.8 C1.77635684e-15,164 1.5,159.1 4.7,155.3 C7.9,151.5 12.6,149.3 18.4,149.3 C24,149.3 28.5,151.4 32.1,155.3 C34.2,157.4 35.5,159.8 36,161.9 C36.4,163.4 36.4,166 36.4,169.8 L36.4,187.6 L36.6,187.6 L36.6,187.4 Z M138.9,171.8 L138.9,240.5 C138.9,246.5 137.4,251.4 134.2,255.3 C131,259.6 126.3,261.7 120.5,261.7 C115.2,261.7 110.7,259.8 107,255.7 C104,252.5 102.3,247.4 102.3,240.5 L102.3,171.8 C102.3,164.1 103.8,158.5 107,155.1 C110.6,151 115.1,149.1 120.7,149.1 C126.3,149.1 130.8,151 134.2,154.9 C137.4,158.6 138.9,164.1 138.9,171.8 L138.9,171.8 Z M204.7,147 C218.2,147 230.6,151.5 241.9,160.5 C250.7,167.6 255.2,175 255.2,182.8 C255.2,189.2 252.4,194.4 247.1,198 C244.1,200.1 240.7,201 237,201 C234,201 231.2,200.4 228.4,198.9 C227.3,198.3 224.5,195.5 220.1,190.8 C216,186.3 210.7,184 204.5,184 C198.5,184 193.4,186.1 189.3,190.2 C185.2,194.5 183.1,199.6 183.1,205.6 C183.1,211.6 185.2,216.7 189.3,221 C193.4,225.3 198.5,227.2 204.5,227.2 C209.4,227.2 214.1,225.5 218.4,222.1 C221,219.5 223.7,217 226.3,214.4 C229.1,212 232.7,210.8 237,210.8 C241.9,210.8 246.2,212.5 250.1,215.9 C253.7,219.3 255.7,223.6 255.7,228.5 C255.7,235.3 251.6,242.2 243.7,249 C232.6,258.8 219.7,263.5 205,263.5 C196,263.5 187.5,261.6 179.3,257.7 C169.2,252.8 161.1,245.7 155.1,236.3 C149.1,226.9 146.1,216.6 146.1,205.3 C146.1,188.6 152.3,174.3 164.7,162.5 C175.7,152.3 188.9,147.2 204.7,147 L204.7,147 Z M298.5,187.4 L319,157.4 C322.9,151.8 328,149.1 334.2,149.1 C339.3,149.1 343.6,150.8 347.3,154.4 C350.9,158 352.9,162.3 352.9,167.2 C352.9,170.8 351.8,174 349.9,177 L331.3,204 L354,232.9 C356.4,235.7 357.4,239.1 357.4,243 C357.4,248.1 355.7,252.4 352.1,256.1 C348.5,259.7 344.2,261.7 339,261.7 C333.4,261.7 329.2,260 326.2,256.4 L298.4,221.7 L298.4,241 C298.4,246.6 297.5,250.6 295.6,253.8 C292.2,259.4 287,262.1 280.4,262.1 C274.4,262.1 269.7,260.2 266.5,256.1 C263.5,252.5 261.8,247.3 261.8,241.3 L261.8,169.6 C261.8,163.8 263.3,158.9 266.5,155.1 C270.1,151.2 274.6,149.1 280.4,149.1 C286,149.1 290.5,151 294.3,155.1 C296.4,157.2 297.7,159.6 298.2,161.7 C298.6,163.2 298.6,165.8 298.6,169.6 L298.6,187.4 L298.5,187.4 Z M380.2,218.9 C384.3,218.9 388.5,220.6 393.3,224.2 C399.1,228.7 402.9,230.8 405.1,230.8 C408.3,230.8 409.8,229.1 409.8,225.9 C409.8,224.2 408.9,222.7 407,221.4 C405.9,220.8 400.6,218.6 390.5,215.2 C374.2,209.4 366.1,198.9 366.1,183.3 C366.1,171.5 370.4,162.3 378.9,155.7 C386.6,149.9 395.8,146.9 406.9,146.9 C416.5,146.9 424.9,149.3 431.9,153.7 C439,158.2 442.6,164.2 442.6,171.5 C442.6,175.8 441.3,179.4 438.5,182.4 C435.7,185.4 432.3,186.7 428,186.7 C423.5,186.7 418.6,184.6 413,180.3 C409.6,177.7 407,176.2 405.3,176.2 C402.3,176.2 400.8,177.7 400.8,180.5 C400.8,183.3 404.4,185.8 411.9,188 C422.2,191.2 429.9,195.1 435.4,199.8 C442.9,206 446.5,214.6 446.5,225.7 C446.5,237.9 442.4,247.3 434.1,254.2 C426.4,260.6 416.3,263.6 403.9,263.6 C391.5,263.6 381.2,260.4 373.1,253.8 C366.7,248.5 363.3,242.5 363.3,235.4 C363.3,230.7 364.8,226.8 368,223.6 C371.6,220.6 375.5,218.9 380.2,218.9 L380.2,218.9 Z M478,184 L468.4,184 C463.1,184 458.6,182.5 455.1,179.7 C451.5,176.5 449.5,172.4 449.5,167.1 C449.5,163.9 450.4,160.9 452.1,158.1 C453.8,155.1 456.2,153.2 458.9,151.9 C461.6,150.6 468.3,150 478.8,150 L515.6,150 C524.6,150 530.6,150.6 533.1,151.7 C536.1,153 538.4,154.9 540.2,157.9 C541.9,160.9 543,163.9 543,167.1 C543,172.2 541.1,176.5 537,180.2 C534.2,182.8 529.5,184.3 522.9,184.3 L514.6,184.3 L514.6,239.5 C514.6,245.5 513.5,250.2 511.6,253.4 C508.2,259 503,261.7 496.6,261.7 C490,261.7 485,259.1 481.4,254.2 C479.3,251 478,246.3 478,239.9 L478,184 L478,184 Z M566.8,246.5 C565.1,250.6 563.4,253.8 561.5,255.7 C557.9,259.8 553.4,261.7 548,261.7 C541.6,261.7 536.4,259.1 533,254 C530.9,251 529.8,247.4 529.8,243.5 C529.8,240.3 530.7,237.1 532.2,233.9 L566.9,160.1 C570.3,152.8 575.9,149.4 583.8,149.4 C591.7,149.4 597.5,153 600.9,160.5 L636,234.7 C637.5,237.7 638.1,240.7 638.1,243.5 C638.1,247.8 636.6,251.6 633.8,255.1 C630.2,259.6 625.5,261.7 619.7,261.7 C615,261.7 611.1,260.2 607.9,257.4 C605.5,255.3 603.2,251.6 600.8,246.7 L566.8,246.7 L566.8,246.5 L566.8,246.5 Z M718.7,218 L727.3,231.9 C729.7,235.8 730.9,239.6 730.9,243.7 C730.9,248.8 729.2,253.1 725.6,256.5 C722,259.9 717.7,261.6 712.5,261.6 C705.9,261.6 700.9,258.8 697.5,253.3 L682.3,228.3 L682.3,243.3 C682.3,248.4 680.6,252.7 677.2,256.4 C673.8,260 669.5,261.7 664.4,261.7 C658.2,261.7 653.3,259.6 650.1,254.9 C647.1,251 645.8,245.7 645.8,239.3 L645.8,171 C645.8,156.9 653.3,150 668.5,150 L691.8,150 C699.5,150 706.6,152.1 713,156.6 C719.6,161.1 724.3,166.7 727.3,173.7 C729.7,179 730.7,184.4 730.7,189.7 C730.6,199.8 726.6,209.3 718.7,218 L718.7,218 Z M762.1,184 L752.5,184 C747.2,184 742.7,182.5 739.2,179.7 C735.6,176.5 733.6,172.4 733.6,167.1 C733.6,163.9 734.5,160.9 736.2,158.1 C737.9,155.1 740.3,153.2 743,151.9 C745.8,150.6 752.4,150 762.9,150 L799.7,150 C808.7,150 814.7,150.6 817.2,151.7 C820.2,153 822.5,154.9 824.3,157.9 C826,160.9 827.1,163.9 827.1,167.1 C827.1,172.2 825.2,176.5 821.1,180.2 C818.3,182.8 813.6,184.3 807,184.3 L798.7,184.3 L798.7,239.5 C798.7,245.5 797.6,250.2 795.7,253.4 C792.3,259 787.1,261.7 780.7,261.7 C774.1,261.7 769.1,259.1 765.5,254.2 C763.4,251 762.1,246.3 762.1,239.9 L762.1,184 L762.1,184 Z M870.3,226.6 L887,226.6 C893.8,226.6 899,228.1 902.4,230.9 C906.3,234.3 908.4,238.6 908.4,244 C908.4,249.4 906.5,253.8 902.4,257.1 C899.4,259.7 894.3,261 887.2,261 L858.7,261 C852.1,261 847.4,260.6 844.8,259.5 C839.9,257.6 836.7,254.2 835.2,249.7 C834.1,246.7 833.7,242 833.7,235.4 L833.7,175.1 C833.7,170 833.9,166.8 834.1,165 C834.7,161.6 836,158.6 838.4,156 C841,153.2 844.4,151.5 848.2,150.7 C850.1,150.3 854,150.3 859.8,150.3 L881.6,150.3 C887.6,150.3 891,150.3 892.1,150.5 C896,150.9 899.2,152 901.7,153.9 C906.2,157.3 908.3,161.6 908.3,167 C908.3,172.8 906.4,177.3 902.5,180.5 C899.1,183.3 894.4,184.6 888.4,184.6 L870.4,184.6 L870.4,192.1 L884.7,192.1 C889,192.1 892.4,193.2 895.2,195.5 C898.2,197.9 899.5,201.1 899.5,205.3 C899.5,214.1 894.2,218.6 883.5,218.6 L870.4,218.6 L870.4,226.9 L870.3,226.9 L870.3,226.6 Z M987.8,218 L996.4,231.9 C998.8,235.8 1000,239.6 1000,243.7 C1000,248.8 998.3,253.1 994.7,256.5 C991.1,259.9 986.8,261.6 981.6,261.6 C975,261.6 970,258.8 966.6,253.3 L951.4,228.3 L951.4,243.3 C951.4,248.4 949.7,252.7 946.3,256.4 C942.9,260 938.6,261.7 933.5,261.7 C927.3,261.7 922.4,259.6 919.2,254.9 C916.2,251 914.9,245.7 914.9,239.3 L914.9,171 C914.9,156.9 922.4,150 937.6,150 L960.9,150 C968.6,150 975.7,152.1 982.1,156.6 C988.7,161.1 993.4,166.7 996.4,173.7 C998.8,179 999.8,184.4 999.8,189.7 C999.8,199.8 995.7,209.3 987.8,218 L987.8,218 Z" id="Shape" fill="#2BDE73" sketch:type="MSShapeGroup"></path>
            <path d="M36.6,325.4 L57.1,295.4 C61,289.8 66.1,287.1 72.3,287.1 C77.4,287.1 81.7,288.8 85.4,292.4 C89,296 91,300.3 91,305.2 C91,308.8 89.9,312 88,315 L69.4,342 L92,371 C94.4,373.8 95.4,377.2 95.4,381.1 C95.4,386.2 93.7,390.5 90.1,394.2 C86.5,397.8 82.2,399.8 77,399.8 C71.4,399.8 67.2,398.1 64.2,394.5 L36.4,359.8 L36.4,379.1 C36.4,384.7 35.5,388.7 33.6,391.9 C30.2,397.5 25,400.2 18.4,400.2 C12.4,400.2 7.7,398.3 4.5,394.2 C1.5,389.9 1.77635684e-15,385 1.77635684e-15,378.8 L1.77635684e-15,307.8 C1.77635684e-15,302 1.5,297.1 4.7,293.3 C7.9,289.4 12.6,287.3 18.4,287.3 C24,287.3 28.5,289.4 32.1,293.3 C34.2,295.4 35.5,297.8 36,299.9 C36.4,301.4 36.4,304 36.4,307.8 L36.4,325.6 L36.6,325.6 L36.6,325.4 Z M138.9,309.8 L138.9,378.5 C138.9,384.5 137.4,389.4 134.2,393.3 C131,397.6 126.3,399.7 120.5,399.7 C115.2,399.7 110.7,397.8 107,393.7 C104,390.5 102.3,385.4 102.3,378.5 L102.3,309.8 C102.3,302.1 103.8,296.5 107,293.1 C110.6,289 115.1,287.1 120.7,287.1 C126.3,287.1 130.8,289 134.2,292.9 C137.4,296.6 138.9,302.1 138.9,309.8 L138.9,309.8 Z M204.7,285 C218.2,285 230.6,289.5 241.9,298.5 C250.7,305.6 255.2,313 255.2,320.8 C255.2,327.2 252.4,332.4 247.1,336 C244.1,338.1 240.7,339 237,339 C234,339 231.2,338.4 228.4,336.9 C227.3,336.3 224.5,333.5 220.1,328.8 C216,324.3 210.7,322 204.5,322 C198.5,322 193.4,324.1 189.3,328.2 C185.2,332.5 183.1,337.6 183.1,343.6 C183.1,349.6 185.2,354.7 189.3,359 C193.4,363.3 198.5,365.2 204.5,365.2 C209.4,365.2 214.1,363.5 218.4,360.1 C221,357.5 223.7,355 226.3,352.4 C229.1,350 232.7,348.8 237,348.8 C241.9,348.8 246.2,350.5 250.1,353.9 C253.7,357.3 255.7,361.6 255.7,366.5 C255.7,373.3 251.6,380.2 243.7,387 C232.6,396.8 219.7,401.5 205,401.5 C196,401.5 187.5,399.6 179.3,395.7 C169.2,390.8 161.1,383.7 155.1,374.3 C149.1,364.9 146.1,354.6 146.1,343.3 C146.1,326.6 152.3,312.3 164.7,300.5 C175.7,290.3 188.9,285.2 204.7,285 L204.7,285 Z M298.5,325.4 L319,295.4 C322.9,289.8 328,287.1 334.2,287.1 C339.3,287.1 343.6,288.8 347.3,292.4 C350.9,296 352.9,300.3 352.9,305.2 C352.9,308.8 351.8,312 349.9,315 L331.3,342 L354,370.9 C356.4,373.7 357.4,377.1 357.4,381 C357.4,386.1 355.7,390.4 352.1,394.1 C348.5,397.7 344.2,399.7 339,399.7 C333.4,399.7 329.2,398 326.2,394.4 L298.4,359.7 L298.4,379 C298.4,384.6 297.5,388.6 295.6,391.8 C292.2,397.4 287,400.1 280.4,400.1 C274.4,400.1 269.7,398.2 266.5,394.1 C263.5,390.5 261.8,385.3 261.8,379.3 L261.8,307.6 C261.8,301.8 263.3,296.9 266.5,293.1 C270.1,289.2 274.6,287.1 280.4,287.1 C286,287.1 290.5,289 294.3,293.1 C296.4,295.2 297.7,297.6 298.2,299.7 C298.6,301.2 298.6,303.8 298.6,307.6 L298.6,325.4 L298.5,325.4 Z M380.2,356.9 C384.3,356.9 388.5,358.6 393.3,362.2 C399.1,366.7 402.9,368.8 405.1,368.8 C408.3,368.8 409.8,367.1 409.8,363.9 C409.8,362.2 408.9,360.7 407,359.4 C405.9,358.8 400.6,356.6 390.5,353.2 C374.2,347.4 366.1,336.9 366.1,321.3 C366.1,309.5 370.4,300.3 378.9,293.7 C386.6,287.9 395.8,284.9 406.9,284.9 C416.5,284.9 424.9,287.3 431.9,291.7 C439,296.2 442.6,302.2 442.6,309.5 C442.6,313.8 441.3,317.4 438.5,320.4 C435.7,323.4 432.3,324.7 428,324.7 C423.5,324.7 418.6,322.6 413,318.3 C409.6,315.7 407,314.2 405.3,314.2 C402.3,314.2 400.8,315.7 400.8,318.5 C400.8,321.3 404.4,323.8 411.9,326 C422.2,329.2 429.9,333.1 435.4,337.8 C442.9,344 446.5,352.6 446.5,363.7 C446.5,375.9 442.4,385.3 434.1,392.2 C426.4,398.6 416.3,401.6 403.9,401.6 C391.5,401.6 381.2,398.4 373.1,391.8 C366.7,386.5 363.3,380.5 363.3,373.4 C363.3,368.7 364.8,364.8 368,361.6 C371.6,358.6 375.5,356.9 380.2,356.9 L380.2,356.9 Z M478,322 L468.4,322 C463.1,322 458.6,320.5 455.1,317.7 C451.5,314.5 449.5,310.4 449.5,305.1 C449.5,301.9 450.4,298.9 452.1,296.1 C453.8,293.1 456.2,291.2 458.9,289.9 C461.6,288.6 468.3,288 478.8,288 L515.6,288 C524.6,288 530.6,288.6 533.1,289.7 C536.1,291 538.4,292.9 540.2,295.9 C541.9,298.9 543,301.9 543,305.1 C543,310.2 541.1,314.5 537,318.2 C534.2,320.8 529.5,322.3 522.9,322.3 L514.6,322.3 L514.6,377.5 C514.6,383.5 513.5,388.2 511.6,391.4 C508.2,397 503,399.7 496.6,399.7 C490,399.7 485,397.1 481.4,392.2 C479.3,389 478,384.3 478,377.9 L478,322 L478,322 Z M566.8,384.5 C565.1,388.6 563.4,391.8 561.5,393.7 C557.9,397.8 553.4,399.7 548,399.7 C541.6,399.7 536.4,397.1 533,392 C530.9,389 529.8,385.4 529.8,381.5 C529.8,378.3 530.7,375.1 532.2,371.9 L566.9,298.1 C570.3,290.8 575.9,287.4 583.8,287.4 C591.7,287.4 597.5,291 600.9,298.5 L636,372.7 C637.5,375.7 638.1,378.7 638.1,381.5 C638.1,385.8 636.6,389.6 633.8,393.1 C630.2,397.6 625.5,399.7 619.7,399.7 C615,399.7 611.1,398.2 607.9,395.4 C605.5,393.3 603.2,389.6 600.8,384.7 L566.8,384.7 L566.8,384.5 L566.8,384.5 Z M718.7,356 L727.3,369.9 C729.7,373.8 730.9,377.6 730.9,381.7 C730.9,386.8 729.2,391.1 725.6,394.5 C722,397.9 717.7,399.6 712.5,399.6 C705.9,399.6 700.9,396.8 697.5,391.3 L682.3,366.3 L682.3,381.3 C682.3,386.4 680.6,390.7 677.2,394.4 C673.8,398 669.5,399.7 664.4,399.7 C658.2,399.7 653.3,397.6 650.1,392.9 C647.1,389 645.8,383.7 645.8,377.3 L645.8,309 C645.8,294.9 653.3,288 668.5,288 L691.8,288 C699.5,288 706.6,290.1 713,294.6 C719.6,299.1 724.3,304.7 727.3,311.7 C729.7,317 730.7,322.4 730.7,327.7 C730.6,337.8 726.6,347.3 718.7,356 L718.7,356 Z M762.1,322 L752.5,322 C747.2,322 742.7,320.5 739.2,317.7 C735.6,314.5 733.6,310.4 733.6,305.1 C733.6,301.9 734.5,298.9 736.2,296.1 C737.9,293.1 740.3,291.2 743,289.9 C745.7,288.6 752.4,288 762.9,288 L799.7,288 C808.7,288 814.7,288.6 817.2,289.7 C820.2,291 822.5,292.9 824.3,295.9 C826,298.9 827.1,301.9 827.1,305.1 C827.1,310.2 825.2,314.5 821.1,318.2 C818.3,320.8 813.6,322.3 807,322.3 L798.7,322.3 L798.7,377.5 C798.7,383.5 797.6,388.2 795.7,391.4 C792.3,397 787.1,399.7 780.7,399.7 C774.1,399.7 769.1,397.1 765.5,392.2 C763.4,389 762.1,384.3 762.1,377.9 L762.1,322 L762.1,322 Z M870.3,364.6 L887,364.6 C893.8,364.6 899,366.1 902.4,368.9 C906.3,372.3 908.4,376.6 908.4,382 C908.4,387.4 906.5,391.8 902.4,395.1 C899.4,397.7 894.3,399 887.2,399 L858.7,399 C852.1,399 847.4,398.6 844.8,397.5 C839.9,395.6 836.7,392.2 835.2,387.7 C834.1,384.7 833.7,380 833.7,373.4 L833.7,313.1 C833.7,308 833.9,304.8 834.1,303 C834.7,299.6 836,296.6 838.4,294 C841,291.2 844.4,289.5 848.2,288.7 C850.1,288.3 854,288.3 859.8,288.3 L881.6,288.3 C887.6,288.3 891,288.3 892.1,288.5 C896,288.9 899.2,290 901.7,291.9 C906.2,295.3 908.3,299.6 908.3,305 C908.3,310.8 906.4,315.3 902.5,318.5 C899.1,321.3 894.4,322.6 888.4,322.6 L870.4,322.6 L870.4,330.1 L884.7,330.1 C889,330.1 892.4,331.2 895.2,333.5 C898.2,335.9 899.5,339.1 899.5,343.3 C899.5,352.1 894.2,356.6 883.5,356.6 L870.4,356.6 L870.4,364.9 L870.3,364.9 L870.3,364.6 Z M987.8,356 L996.4,369.9 C998.8,373.8 1000,377.6 1000,381.7 C1000,386.8 998.3,391.1 994.7,394.5 C991.1,397.9 986.8,399.6 981.6,399.6 C975,399.6 970,396.8 966.6,391.3 L951.4,366.3 L951.4,381.3 C951.4,386.4 949.7,390.7 946.3,394.4 C942.9,398 938.6,399.7 933.5,399.7 C927.3,399.7 922.4,397.6 919.2,392.9 C916.2,389 914.9,383.7 914.9,377.3 L914.9,309 C914.9,294.9 922.4,288 937.6,288 L960.9,288 C968.6,288 975.7,290.1 982.1,294.6 C988.7,299.1 993.4,304.7 996.4,311.7 C998.8,317 999.8,322.4 999.8,327.7 C999.8,337.8 995.7,347.3 987.8,356 L987.8,356 Z" id="Shape" fill="#808385" sketch:type="MSShapeGroup"></path>
        </g>
    </g>
</svg>