<?xml version="1.0" encoding="UTF-8" standalone="no"?>
<!-- Created with Inkscape (http://www.inkscape.org/) -->

<svg
   xmlns:dc="http://purl.org/dc/elements/1.1/"
   xmlns:cc="http://creativecommons.org/ns#"
   xmlns:rdf="http://www.w3.org/1999/02/22-rdf-syntax-ns#"
   xmlns:svg="http://www.w3.org/2000/svg"
   xmlns="http://www.w3.org/2000/svg"
   xmlns:xlink="http://www.w3.org/1999/xlink"
   xmlns:sodipodi="http://sodipodi.sourceforge.net/DTD/sodipodi-0.dtd"
   xmlns:inkscape="http://www.inkscape.org/namespaces/inkscape"
   version="1.1"
   width="24"
   height="24"
   viewBox="0 0 24 24"
   id="Layer_1"
   xml:space="preserve"
   inkscape:version="0.48.5 r10040"
   sodipodi:docname="code.svg"><sodipodi:namedview
   pagecolor="#ffffff"
   bordercolor="#666666"
   borderopacity="1"
   objecttolerance="10"
   gridtolerance="10"
   guidetolerance="10"
   inkscape:pageopacity="0"
   inkscape:pageshadow="2"
   inkscape:window-width="640"
   inkscape:window-height="480"
   id="namedview8"
   showgrid="false"
   inkscape:zoom="9.8333333"
   inkscape:cx="12"
   inkscape:cy="12"
   inkscape:window-x="0"
   inkscape:window-y="0"
   inkscape:window-maximized="0"
   inkscape:current-layer="Layer_1" /><metadata
   id="metadata10"><rdf:RDF><cc:Work
       rdf:about=""><dc:format>image/svg+xml</dc:format><dc:type
         rdf:resource="http://purl.org/dc/dcmitype/StillImage" /><dc:title /></cc:Work></rdf:RDF></metadata><defs
   id="defs8" />
<g
   id="code"
   style="opacity:0.75000000000000000;fill:#4d4d4d">
	<path
   d="m 4,12 v -1 h 1 c 1,0 1,0 1,-1 V 7.614 C 6,7.1 6.024,6.718 6.073,6.472 6.127,6.22 6.212,6.009 6.33,5.839 6.534,5.56 6.803,5.364 7.138,5.255 7.473,5.14 8.01,5 8.973,5 H 10 V 6 H 9.248 C 8.791,6 8.478,6.191 8.312,6.408 8.145,6.623 8,6.853 8,7.476 v 1.857 c 0,0.729 -0.041,1.18 -0.244,1.493 -0.2,0.307 -0.562,0.529 -1.09,0.667 0.535,0.155 0.9,0.385 1.096,0.688 C 7.961,12.484 8,12.938 8,13.665 v 1.862 c 0,0.619 0.145,0.848 0.312,1.062 0.166,0.22 0.479,0.407 0.936,0.407 L 10,17 l 0,0 v 1 H 8.973 C 8.01,18 7.473,17.867 7.138,17.752 6.803,17.643 6.534,17.445 6.33,17.161 6.212,16.996 6.127,16.787 6.073,16.536 6.024,16.283 6,15.9 6,15.387 V 13 C 6,12 6,12 5,12 H 4 z"
   id="left-bracket"
   style="fill:#4d4d4d" />
	<use
   transform="matrix(-1,0,0,1,24,0)"
   id="right-bracket"
   style="fill:#4d4d4d"
   x="0"
   y="0"
   width="24"
   height="24"
   xlink:href="#left-bracket" />
</g>
</svg>