<?xml version="1.0" encoding="utf-8"?>
<!-- Generator: Adobe Illustrator 16.0.0, SVG Export Plug-In . SVG Version: 6.00 Build 0)  -->
<!DOCTYPE svg PUBLIC "-//W3C//DTD SVG 1.1//EN" "http://www.w3.org/Graphics/SVG/1.1/DTD/svg11.dtd">
<svg version="1.1"
	 id="Layer_1" sodipodi:docname="credits.svg" inkscape:version="0.48.5 r10040" xmlns:dc="http://purl.org/dc/elements/1.1/" xmlns:cc="http://creativecommons.org/ns#" xmlns:rdf="http://www.w3.org/1999/02/22-rdf-syntax-ns#" xmlns:svg="http://www.w3.org/2000/svg" xmlns:sodipodi="http://sodipodi.sourceforge.net/DTD/sodipodi-0.dtd" xmlns:inkscape="http://www.inkscape.org/namespaces/inkscape"
	 xmlns="http://www.w3.org/2000/svg" xmlns:xlink="http://www.w3.org/1999/xlink" x="0px" y="0px" width="800px" height="593.109px"
	 viewBox="-144 -103.794 800 593.109" enable-background="new -144 -103.794 800 593.109" xml:space="preserve">
<sodipodi:namedview  id="namedview5" inkscape:window-height="480" inkscape:window-width="640" inkscape:pageshadow="2" inkscape:pageopacity="0" inkscape:window-maximized="0" bordercolor="#666666" pagecolor="#ffffff" guidetolerance="10" inkscape:cy="192.7605" gridtolerance="10" inkscape:cx="256" objecttolerance="10" inkscape:zoom="0.55859375" showgrid="false" borderopacity="1" inkscape:current-layer="Layer_1" inkscape:window-y="0" inkscape:window-x="0">
	</sodipodi:namedview>
<path id="path3" fill="#4D4D4D" d="M252.416-98.038c45.215,0,81.881,36.653,81.881,81.872c0,45.213-36.666,81.863-81.881,81.863
	c-45.212,0-81.87-36.652-81.87-81.863C170.545-61.385,207.204-98.038,252.416-98.038z M170.545,168.803
	c-10.914,5.457-28.909,52.96-19.04,59.356l-53.148-9.772c36.158-13.103,43.399-34.981,46.335-74.908l-2.788-24.826
	c11.874-9.877,29.436-31.713,45.02-31.713h130.986c15.918,0,29.908,6.77,41.961,17.022l7.674,28.259
	c0,33.369,25.424,43.397,51.987,59.557l-37.147-0.78c-9.656-0.345-18.602,1.83-26.833,5.787
	c-6.972-11.985-15.589-25.139-21.258-27.981l1.831,41.451c-34.658,31.816-51.99,91.871-51.99,91.871l-5.995,29.74L260.6,332.54
	c-11.776,0-23.343-0.914-34.614-2.683c-8.981-23.864-28.551-66.92-58.72-86.991L170.545,168.803z M48.769,54.701
	c45.212,0,81.87,36.653,81.87,81.864c0,45.22-36.66,81.872-81.87,81.872c-45.222,0-81.872-36.653-81.872-81.872
	C-33.104,91.354,3.547,54.701,48.769,54.701z M-33.104,321.554c-10.914,5.452-32.747,49.108-32.747,49.108
	s-10.914,16.368-16.371,81.879l-49.124-16.385l16.378-81.864c0,0,32.746-114.618,98.241-114.618h130.988
	c65.495,0,98.241,114.618,98.241,114.618l16.378,81.864l-49.124,16.385c-5.457-65.511-16.371-81.879-16.371-81.879
	s-21.833-43.656-32.747-49.108l6.611,148.69c-24.893,9.7-51.974,15.036-80.297,15.036c-34.532,0-67.212-7.914-96.323-22.034
	L-33.104,321.554z M463.231,23.708c45.212,1.613,81.865,39.568,81.865,84.781c0,45.218-36.654,80.566-81.865,78.957
	c-45.227-1.612-81.863-39.568-81.863-84.781C381.367,57.446,418.005,22.096,463.231,23.708z M381.367,287.644
	c-10.914,5.065-32.754,47.938-32.754,47.938s-10.914,15.998-16.371,81.297l-49.125-18.124l16.371-81.28
	c0,0,32.752-113.458,98.251-111.126l130.987,4.662c65.495,2.331,98.248,118.114,98.248,118.114l16.371,82.461l-49.124,14.616
	c-5.458-65.689-16.37-82.447-16.37-82.447s-21.843-44.449-32.754-50.296l6.626,148.948c-24.899,8.813-51.989,13.177-80.306,12.172
	c-34.523-1.229-67.204-10.313-96.315-25.454L381.367,287.644z"/>
</svg>
