<?xml version="1.0" encoding="UTF-8" standalone="no"?>
<!-- Generator: Adobe Illustrator 15.0.2, SVG Export Plug-In . SVG Version: 6.00 Build 0)  -->

<svg
   xmlns:dc="http://purl.org/dc/elements/1.1/"
   xmlns:cc="http://creativecommons.org/ns#"
   xmlns:rdf="http://www.w3.org/1999/02/22-rdf-syntax-ns#"
   xmlns:svg="http://www.w3.org/2000/svg"
   xmlns="http://www.w3.org/2000/svg"
   xmlns:sodipodi="http://sodipodi.sourceforge.net/DTD/sodipodi-0.dtd"
   xmlns:inkscape="http://www.inkscape.org/namespaces/inkscape"
   version="1.1"
   id="Layer_1"
   x="0px"
   y="0px"
   width="512px"
   height="385.521px"
   viewBox="0 0 512 385.521"
   enable-background="new 0 0 512 385.521"
   xml:space="preserve"
   inkscape:version="0.48.5 r10040"
   sodipodi:docname="credits.svg"><metadata
   id="metadata9"><rdf:RDF><cc:Work
       rdf:about=""><dc:format>image/svg+xml</dc:format><dc:type
         rdf:resource="http://purl.org/dc/dcmitype/StillImage" /></cc:Work></rdf:RDF></metadata><defs
   id="defs7" /><sodipodi:namedview
   pagecolor="#ffffff"
   bordercolor="#666666"
   borderopacity="1"
   objecttolerance="10"
   gridtolerance="10"
   guidetolerance="10"
   inkscape:pageopacity="0"
   inkscape:pageshadow="2"
   inkscape:window-width="640"
   inkscape:window-height="480"
   id="namedview5"
   showgrid="false"
   inkscape:zoom="0.55859375"
   inkscape:cx="256"
   inkscape:cy="192.7605"
   inkscape:window-x="0"
   inkscape:window-y="0"
   inkscape:window-maximized="0"
   inkscape:current-layer="Layer_1" />
<path
   d="M253.632,0c29.881,0,54.115,24.224,54.115,54.109c0,29.882-24.234,54.105-54.115,54.105s-54.109-24.224-54.109-54.105  C199.522,24.224,223.751,0,253.632,0z M199.522,176.358c-7.213,3.606-19.106,35.003-12.583,39.229l-35.127-6.459  c23.897-8.659,28.683-23.119,30.624-49.508l-1.843-16.407c7.847-6.529,19.454-20.959,29.753-20.959h86.571  c10.521,0,19.766,4.473,27.731,11.25l5.072,18.676c0,22.054,16.803,28.682,34.359,39.362l-24.551-0.516  c-6.381-0.228-12.295,1.209-17.734,3.824c-4.607-7.921-10.304-16.614-14.049-18.492l1.209,27.395  c-22.906,21.028-34.359,60.718-34.359,60.718l-3.963,19.656l-11.592,0.446c-7.783,0-15.427-0.604-22.877-1.773  c-5.935-15.772-18.869-44.228-38.808-57.493L199.522,176.358z M119.039,100.947c29.881,0,54.109,24.225,54.109,54.105  c0,29.886-24.229,54.109-54.109,54.109c-29.887,0-54.11-24.224-54.11-54.109C64.929,125.172,89.152,100.947,119.039,100.947z   M64.929,277.312c-7.213,3.605-21.643,32.456-21.643,32.456s-7.213,10.819-10.819,54.115L0,353.054l10.824-54.104  c0,0,21.643-75.753,64.929-75.753h86.571c43.286,0,64.929,75.753,64.929,75.753l10.824,54.104l-32.467,10.829  c-3.606-43.296-10.819-54.115-10.819-54.115s-14.43-28.851-21.643-32.456l4.369,98.272c-16.451,6.41-34.35,9.937-53.069,9.937  c-22.822,0-44.42-5.23-63.661-14.563L64.929,277.312z M392.961,80.464c29.882,1.065,54.105,26.15,54.105,56.032  c0,29.886-24.224,53.247-54.105,52.183c-29.891-1.065-54.104-26.151-54.104-56.032C338.856,102.761,363.07,79.398,392.961,80.464z   M338.856,254.9c-7.213,3.349-21.647,31.684-21.647,31.684s-7.213,10.572-10.819,53.729l-32.467-11.978l10.818-53.719  c0,0,21.648-74.985,64.935-73.444l86.571,3.081c43.286,1.541,64.934,78.062,64.934,78.062L512,336.815l-32.467,9.66  c-3.606-43.415-10.819-54.491-10.819-54.491s-14.435-29.376-21.647-33.24l4.379,98.441c-16.456,5.825-34.359,8.709-53.074,8.045  c-22.817-0.812-44.416-6.816-63.656-16.823L338.856,254.9z"
   id="path3"
   style="fill:#4d4d4d" />
</svg>