<?xml version="1.0" encoding="utf-8"?>
<!-- Generator: Adobe Illustrator 16.0.0, SVG Export Plug-In . SVG Version: 6.00 Build 0)  -->
<!DOCTYPE svg PUBLIC "-//W3C//DTD SVG 1.1//EN" "http://www.w3.org/Graphics/SVG/1.1/DTD/svg11.dtd">
<svg version="1.1" xmlns="http://www.w3.org/2000/svg" xmlns:xlink="http://www.w3.org/1999/xlink" x="0px" y="0px" width="92.67px"
	 height="92.67px" viewBox="0 0 92.67 92.67" enable-background="new 0 0 92.67 92.67" xml:space="preserve">
<g id="Layer_4" display="none">
	<rect x="2.5" y="3.5" display="inline" fill="#050505" stroke="#FFFFFF" stroke-miterlimit="10" width="67" height="66"/>
</g>
<g id="Layer_2">
</g>
<g id="Layer_3">
</g>
<g id="Layer_5">
	
		<rect x="18.84" y="24.39" transform="matrix(-0.7071 -0.7071 0.7071 -0.7071 42.3501 123.1308)" fill="#FFFFFF" width="55.66" height="56.81"/>
	<polygon fill="#0B2956" points="9.39,55.77 46.48,18.23 83.49,55.33 92.25,46.57 46.55,0.56 0.98,47.11 	"/>
	<polygon fill="#1453BB" points="46.28,92.67 12.42,58.81 46.28,24.94 80.15,58.81 	"/>
	<polygon fill="#FFFFFF" points="46.54,43.05 50.54,55 47.74,55 48.04,64.83 44.75,64.96 45.09,54 42.55,54.06 	"/>
	<polygon fill="#FFFFFF" points="44.71,68 48.19,68 48.82,79.18 44.12,78.8 	"/>
	<path fill="#FFFFFF" d="M52.07,56.24l0.9,2.77c0,0,1.76-0.37,1.86-0.34c1.8,0.61,2.9,1.41,3.1,2.35c0.19,0.94-1.62,4.58-11.39,4.58
		c-9.76,0-9.99-2.9-10.19-3.63c-0.62-2.31,4.07-3.39,5.75-3.88c0,0-2.19-2.29-3.63-2.29c0,0-7.38,2.23-7.38,4.92
		c0,3.35,5.87,6.38,15.46,6.28c9.59-0.1,13.82-3.09,13.87-5.55c0.05-2.69-2.99-3.41-2.99-3.41l0.9-0.3L52.07,56.24z"/>
</g>
</svg>
