<?xml version="1.0" encoding="UTF-8" standalone="no"?>
<svg
   xmlns:dc="http://purl.org/dc/elements/1.1/"
   xmlns:cc="http://creativecommons.org/ns#"
   xmlns:rdf="http://www.w3.org/1999/02/22-rdf-syntax-ns#"
   xmlns:svg="http://www.w3.org/2000/svg"
   xmlns="http://www.w3.org/2000/svg"
   xmlns:sodipodi="http://sodipodi.sourceforge.net/DTD/sodipodi-0.dtd"
   xmlns:inkscape="http://www.inkscape.org/namespaces/inkscape"
   width="200"
   height="162.535"
   id="svg2"
   version="1.1"
   inkscape:version="0.48.5 r10040"
   sodipodi:docname="tweet.svg">
  <metadata
     id="metadata10">
    <rdf:RDF>
      <cc:Work
         rdf:about="">
        <dc:format>image/svg+xml</dc:format>
        <dc:type
           rdf:resource="http://purl.org/dc/dcmitype/StillImage" />
      </cc:Work>
    </rdf:RDF>
  </metadata>
  <defs
     id="defs8" />
  <sodipodi:namedview
     pagecolor="#ffffff"
     bordercolor="#666666"
     borderopacity="1"
     objecttolerance="10"
     gridtolerance="10"
     guidetolerance="10"
     inkscape:pageopacity="0"
     inkscape:pageshadow="2"
     inkscape:window-width="640"
     inkscape:window-height="480"
     id="namedview6"
     showgrid="false"
     fit-margin-top="0"
     fit-margin-left="0"
     fit-margin-right="0"
     fit-margin-bottom="0"
     inkscape:zoom="0.78666667"
     inkscape:cx="100"
     inkscape:cy="81.269"
     inkscape:window-x="0"
     inkscape:window-y="0"
     inkscape:window-maximized="0"
     inkscape:current-layer="svg2" />
  <path
     d="m 200,19.24 c -7.358,3.264 -15.267,5.469 -23.566,6.461 8.471,-5.078 14.978,-13.119 18.041,-22.701 -7.929,4.703 -16.71,8.117 -26.057,9.957 C 160.934,4.982 150.27,0 138.468,0 115.808,0 97.435,18.371 97.435,41.031 c 0,3.216 0.363,6.348 1.062,9.351 C 64.395,48.671 34.161,32.335 13.923,7.51 10.391,13.57 8.367,20.618 8.367,28.138 c 0,14.236 7.244,26.795 18.254,34.153 -6.726,-0.213 -13.053,-2.059 -18.585,-5.132 -0.004,0.171 -0.004,0.343 -0.004,0.516 0,19.88 14.144,36.464 32.915,40.234 -3.443,0.938 -7.068,1.439 -10.81,1.439 -2.644,0 -5.214,-0.258 -7.72,-0.736 5.222,16.301 20.375,28.165 38.331,28.495 -14.043,11.006 -31.735,17.565 -50.96,17.565 -3.312,0 -6.578,-0.194 -9.788,-0.574 18.159,11.643 39.727,18.437 62.899,18.437 75.473,0 116.746,-62.524 116.746,-116.747 0,-1.779 -0.04,-3.548 -0.119,-5.309 C 187.543,34.695 194.499,27.468 200,19.24 z"
     style="fill:#3aaae1"
     id="path4"
     inkscape:connector-curvature="0" />
</svg>
